<svg width="17" height="24" viewBox="0 0 17 24" fill="none" xmlns="http://www.w3.org/2000/svg">
<path fill-rule="evenodd" clip-rule="evenodd" d="M10.6379 8.90003C11.0206 9.01028 11.4228 8.79626 11.5396 8.4136C11.6628 7.99203 11.7277 7.551 11.7277 7.10349C11.7277 4.56111 9.65838 2.4857 7.10903 2.4857C4.56615 2.4857 2.49033 4.55463 2.49033 7.10349C2.49033 7.66775 2.58764 8.21903 2.78873 8.73788C2.89901 9.02974 3.17146 9.20485 3.46337 9.20485C3.5477 9.20485 3.63204 9.19188 3.71636 9.15945C4.0926 9.01676 4.28072 8.60168 4.13801 8.22551C4.00179 7.8688 3.93042 7.49263 3.93042 7.10349C3.93042 5.35884 5.35106 3.932 7.10253 3.932C8.84752 3.932 10.2746 5.35236 10.2746 7.10349C10.2746 7.40832 10.2292 7.71314 10.1449 8.005C10.0346 8.38766 10.2552 8.78976 10.6379 8.90002L10.6379 8.90003Z" fill="#888888"/>
<path fill-rule="evenodd" clip-rule="evenodd" d="M16.1192 14.5024C16.1192 14.4711 16.114 14.4398 16.1036 14.4086C15.8691 13.3922 15.1916 12.7563 14.3369 12.7563C14.0867 12.7563 13.847 12.8085 13.6281 12.9023C13.3936 12.1935 12.7265 11.6775 11.9396 11.6775C11.6477 11.6775 11.3715 11.7504 11.1318 11.8755C10.8399 11.2918 10.2354 10.8956 9.54223 10.8956C9.32334 10.8956 9.11489 10.9373 8.92205 11.0051V8.83691C8.92205 7.85705 8.12469 7.0544 7.1397 7.0544C6.15992 7.0544 5.35734 7.85184 5.35734 8.83691V16.2692L4.71111 15.1487C4.47137 14.7161 4.09093 14.419 3.63231 14.3043C3.18932 14.1949 2.71507 14.273 2.32421 14.518C1.66755 14.935 1.45909 15.8679 1.78742 16.8843C1.78742 16.8895 1.79263 16.8947 1.79263 16.8999C1.86038 17.1032 3.53329 21.8409 5.52412 23.8267C5.63877 23.9413 5.7847 23.9987 5.93582 23.9987C6.08696 23.9987 6.23289 23.9413 6.34754 23.8267C6.57685 23.5973 6.57164 23.2325 6.34754 23.0032C4.57561 21.2363 2.96523 16.7175 2.89227 16.5194C2.74635 16.0608 2.77241 15.6125 2.9496 15.4979C3.06946 15.4249 3.21018 15.3988 3.34568 15.4301C3.49161 15.4666 3.60626 15.5656 3.69485 15.722L5.43031 18.7293C5.5606 18.9586 5.83161 19.0681 6.08176 19.0004C6.33711 18.9326 6.51432 18.7033 6.51432 18.4375V8.84212C6.51432 8.50334 6.79053 8.22189 7.1345 8.22189C7.47324 8.22189 7.75467 8.49813 7.75467 8.84212V15.4979C7.75467 15.821 8.01525 16.0764 8.33316 16.0764C8.65627 16.0764 8.91163 15.8158 8.91163 15.4979V12.626C8.91163 12.6208 8.91684 12.6156 8.91684 12.6104C8.94811 12.2977 9.2139 12.0579 9.53181 12.0579C9.87056 12.0579 10.152 12.3342 10.152 12.6782V13.4652V14.0854V15.7116C10.152 16.0347 10.4126 16.2901 10.7305 16.2901C11.0536 16.2901 11.309 16.0295 11.309 15.7116V14.0854V13.4652C11.309 13.1264 11.5852 12.845 11.9291 12.845C12.2679 12.845 12.5493 13.1212 12.5493 13.4652V14.2418C12.5493 14.2783 12.5545 14.3147 12.5597 14.3512C12.5545 14.4138 12.5493 14.4763 12.5493 14.5441V15.7168C12.5493 16.0399 12.8099 16.2953 13.1278 16.2953C13.4457 16.2953 13.7063 16.0347 13.7063 15.7168V14.5441C13.7063 14.2053 13.9825 13.9238 14.3265 13.9238C14.7173 13.9238 14.8893 14.3877 14.9466 14.6275C14.9779 15.1956 15.2437 20.4806 14.2535 22.9094C14.1336 23.2064 14.2743 23.5452 14.5714 23.6651C14.6444 23.6964 14.7173 23.7068 14.7903 23.7068C15.0196 23.7068 15.2385 23.5713 15.3271 23.3472C16.484 20.5431 16.1349 14.7473 16.1192 14.5024V14.5024Z" fill="#FFED00"/>
<path fill-rule="evenodd" clip-rule="evenodd" d="M1.43368 10.7372C1.54397 10.7372 1.66075 10.7112 1.76456 10.6593C2.12139 10.4777 2.25764 10.043 2.07598 9.68616C1.66076 8.8817 1.45314 8.01884 1.45314 7.10409C1.45314 3.98353 3.98991 1.44686 7.11059 1.44686C10.2313 1.44686 12.768 3.98353 12.768 7.10409C12.768 7.59714 12.7032 8.08372 12.5799 8.55731C12.4761 8.94657 12.7096 9.34232 13.0924 9.43964C13.4817 9.54344 13.8775 9.30988 13.9748 8.92711C14.1305 8.33674 14.2084 7.7269 14.2084 7.10409C14.2084 3.18555 11.0228 0.000126096 7.1041 0.000126096C3.18541 0.000126096 -0.000152987 3.18555 -0.000152987 7.10409C-0.000152987 8.22645 0.272337 9.34881 0.778393 10.3414C0.91464 10.5944 1.16767 10.7372 1.43367 10.7372L1.43368 10.7372Z" fill="#888888"/>
</svg>
