<svg width="90" height="50" viewBox="0 0 90 50" fill="none" xmlns="http://www.w3.org/2000/svg">
<path d="M89.6401 2.58209C89.1836 1.56445 88.3101 0.75578 87.2108 0.333172C86.67 0.119771 86.0892 0.0065801 85.5013 0H63.0078C61.8147 0 60.6704 0.438776 59.8268 1.2198C58.9831 2.00082 58.5091 3.06012 58.5091 4.16465C58.5091 5.26919 58.9831 6.32848 59.8268 7.10951C60.6704 7.89053 61.8147 8.32931 63.0078 8.32931H74.6594L49.5117 31.6097L34.711 17.8664C34.2928 17.476 33.7953 17.1662 33.2471 16.9548C32.6988 16.7433 32.1108 16.6345 31.517 16.6345C30.9231 16.6345 30.3351 16.7433 29.7869 16.9548C29.2387 17.1662 28.7411 17.476 28.3229 17.8664L1.33071 42.8543C0.909051 43.2415 0.574374 43.7021 0.345981 44.2096C0.117588 44.7171 0 45.2614 0 45.8112C0 46.361 0.117588 46.9053 0.345981 47.4128C0.574374 47.9203 0.909051 48.3809 1.33071 48.7681C1.74892 49.1584 2.24648 49.4683 2.79469 49.6797C3.3429 49.8911 3.9309 50 4.52478 50C5.11866 50 5.70667 49.8911 6.25487 49.6797C6.80308 49.4683 7.30064 49.1584 7.71885 48.7681L31.517 26.6954L46.3177 40.4388C46.7359 40.8291 47.2334 41.139 47.7816 41.3504C48.3299 41.5618 48.9179 41.6707 49.5117 41.6707C50.1056 41.6707 50.6936 41.5618 51.2418 41.3504C51.79 41.139 52.2876 40.8291 52.7058 40.4388L81.0026 14.2015V24.9879C81.0026 26.0925 81.4766 27.1518 82.3202 27.9328C83.1639 28.7138 84.3082 29.1526 85.5013 29.1526C86.6944 29.1526 87.8387 28.7138 88.6824 27.9328C89.526 27.1518 90 26.0925 90 24.9879V4.16465C89.9929 3.62043 89.8706 3.08277 89.6401 2.58209Z" fill="#FFED00"/>
</svg>
