<svg width="24" height="24" viewBox="0 0 24 24" fill="none" xmlns="http://www.w3.org/2000/svg">
<path fill-rule="evenodd" clip-rule="evenodd" d="M6.19354 7.74462L4.35014 6.10598C4.0554 5.84412 3.8864 5.46777 3.8864 5.07325V5.02797C3.8864 4.68796 4.01878 4.36842 4.25929 4.1279C4.4678 3.9194 4.74523 3.80461 5.03997 3.80461C5.33471 3.80461 5.61214 3.9194 5.82064 4.1279L6.19353 4.50079L6.56642 4.1279C6.98343 3.71117 7.71076 3.71117 8.12777 4.1279C8.36829 4.36842 8.50066 4.68795 8.50066 5.02797V5.07325C8.50066 5.46748 8.33166 5.84412 8.03693 6.10598L6.19354 7.74462ZM9.07745 5.0732V5.02792C9.07745 4.53391 8.88509 4.0696 8.53556 3.72007C8.21833 3.40255 7.79613 3.22778 7.3471 3.22778C6.91452 3.22778 6.50673 3.39015 6.19354 3.68604C5.88035 3.39015 5.47256 3.22778 5.03998 3.22778C4.59095 3.22778 4.16875 3.40255 3.85152 3.72007C3.50199 4.06959 3.30963 4.53391 3.30963 5.02792V5.0732C3.30963 5.6321 3.54928 6.16562 3.96688 6.53678L6.19354 8.5163L8.41992 6.53707C8.8378 6.16592 9.07745 5.63239 9.07745 5.0732L9.07745 5.0732Z" fill="white"/>
<path fill-rule="evenodd" clip-rule="evenodd" d="M23.2258 12.7743C23.2258 12.9879 23.052 13.1614 22.8387 13.1614H18.3995L16.5058 15.4332C16.4292 15.5246 16.2581 15.463 16.2581 15.3438V13.1614H11.2258C11.0125 13.1614 10.8387 12.9879 10.8387 12.7743V10.8388H11.2258C11.8661 10.8388 12.3871 10.3178 12.3871 9.6775V3.87104H22.8387C23.052 3.87104 23.2258 4.04446 23.2258 4.25814L23.2258 12.7743ZM13.9355 20.5162C13.9355 20.7299 13.7617 20.9033 13.5484 20.9033H8.51613V23.0858C8.51613 23.2054 8.34503 23.2673 8.26839 23.1752L6.37471 20.9033H1.93548C1.72219 20.9033 1.54839 20.7299 1.54839 20.5162V12.7743C1.54839 12.5606 1.72219 12.3872 1.93548 12.3872H5.75419L6.12542 12.8323C6.29961 13.0414 6.55548 13.1614 6.82761 13.1614C7.28361 13.1614 7.65948 12.8246 7.72761 12.3872H10.0645V12.7743C10.0645 13.4145 10.5855 13.9356 11.2258 13.9356H13.9355L13.9355 20.5162ZM10.0645 11.613H7.74194V10.8388H10.0645V11.613ZM1.1613 10.0646C0.948009 10.0646 0.774204 9.89116 0.774204 9.67749V1.16135C0.774204 0.947677 0.948012 0.774258 1.1613 0.774258H11.2258C11.4391 0.774258 11.6129 0.947677 11.6129 1.16135V9.67749C11.6129 9.89116 11.4391 10.0646 11.2258 10.0646H6.96775V12.247C6.96775 12.3666 6.79666 12.4286 6.72001 12.3365L4.82633 10.0646H1.1613ZM22.8387 3.0969H12.3871V1.16141C12.3871 0.521153 11.8661 0.00012207 11.2258 0.00012207H1.16129C0.521031 0.00012207 0 0.521153 0 1.16141V9.67754C0 10.3178 0.521031 10.8388 1.16129 10.8388H4.464L5.10929 11.613H1.93548C1.29523 11.613 0.774194 12.1341 0.774194 12.7743V20.5163C0.774194 21.1565 1.29523 21.6775 1.93548 21.6775H6.01239L7.67381 23.6711C7.848 23.8801 8.10387 24.0001 8.376 24.0001C8.88 24.0001 9.29032 23.5898 9.29032 23.0858V21.6775H13.5484C14.1886 21.6775 14.7097 21.1565 14.7097 20.5163V13.9356H15.4839V15.3439C15.4839 15.8479 15.8942 16.2582 16.3982 16.2582C16.6703 16.2582 16.9262 16.1382 17.1004 15.9292L18.7618 13.9356H22.8387C23.479 13.9356 24 13.4146 24 12.7743V4.25819C24 3.61793 23.479 3.0969 22.8387 3.0969Z" fill="#FFED00"/>
<path fill-rule="evenodd" clip-rule="evenodd" d="M10.5563 16.4753C10.5563 16.7858 10.3038 17.0382 9.9934 17.0382C9.68297 17.0382 9.43052 16.7858 9.43052 16.4753C9.43052 16.1649 9.68297 15.9125 9.9934 15.9125C10.3038 15.9125 10.5563 16.1649 10.5563 16.4753ZM7.17903 15.9125C7.17903 15.6021 7.43148 15.3496 7.7419 15.3496C8.05233 15.3496 8.30478 15.6021 8.30478 15.9125C8.30478 16.2229 8.05233 16.4754 7.7419 16.4754C7.43148 16.4754 7.17903 16.2229 7.17903 15.9125ZM4.92751 16.4753C4.92751 16.1649 5.17996 15.9125 5.49039 15.9125C5.80081 15.9125 6.05327 16.1649 6.05327 16.4753C6.05327 16.7858 5.80081 17.0382 5.49039 17.0382C5.17996 17.0382 4.92751 16.7858 4.92751 16.4753ZM8.86767 16.4754C8.86767 16.6423 8.90651 16.7993 8.9718 16.9417C8.8505 16.8342 8.71541 16.7425 8.56934 16.6696C8.75284 16.4692 8.86767 16.2049 8.86767 15.9125C8.86767 15.2916 8.36277 14.7867 7.74191 14.7867C7.12106 14.7867 6.61615 15.2916 6.61615 15.9125C6.61615 16.2049 6.73098 16.4692 6.91448 16.6696C6.76841 16.7425 6.63332 16.8342 6.51202 16.9417C6.57731 16.7993 6.61615 16.6423 6.61615 16.4754C6.61615 15.8545 6.11125 15.3496 5.49039 15.3496C4.86954 15.3496 4.36464 15.8545 4.36464 16.4754C4.36464 16.7754 4.48425 17.0464 4.67619 17.2485C4.15552 17.5364 3.80176 18.0908 3.80176 18.7269V19.2898H4.36464V18.7269C4.36464 18.106 4.86954 17.6011 5.49039 17.6011C5.6677 17.6011 5.83769 17.6434 5.99248 17.7207C5.94801 17.8494 5.91537 17.9839 5.89961 18.1243L5.77352 19.2585L6.33274 19.3207L6.45882 18.1865C6.53172 17.5319 7.08334 17.0383 7.74191 17.0383C8.40047 17.0383 8.9521 17.5319 9.02499 18.1865L9.15107 19.3207L9.71029 19.2585L9.58421 18.1243C9.56873 17.9839 9.5358 17.8494 9.49134 17.7207C9.64613 17.6433 9.81612 17.6011 9.99342 17.6011C10.6143 17.6011 11.1192 18.106 11.1192 18.7269V19.2898H11.6821V18.7269C11.6821 18.0908 11.3283 17.5364 10.8076 17.2485C10.9996 17.0464 11.1192 16.7754 11.1192 16.4754C11.1192 15.8545 10.6143 15.3496 9.99342 15.3496C9.37257 15.3496 8.86767 15.8545 8.86767 16.4754V16.4754Z" fill="white"/>
<path fill-rule="evenodd" clip-rule="evenodd" d="M19.7992 10.1028C19.7992 10.3945 19.562 10.6317 19.2703 10.6317H18.1082C17.5833 10.6317 17.0743 10.4886 16.6261 10.2197V8.09687L16.863 7.85995C17.2102 7.51276 17.4569 7.07725 17.5759 6.60102C17.6052 6.48335 17.7107 6.40085 17.8324 6.40085C17.9813 6.40085 18.1219 6.4659 18.2182 6.57986C18.3144 6.69357 18.3557 6.84297 18.3311 6.98999L18.165 7.9874H19.2703C19.562 7.9874 19.7992 8.22459 19.7992 8.51625V10.1028ZM15.0395 10.6317V7.98746H16.0972L16.0975 10.6317H15.0395ZM19.2703 7.45862H18.7891L18.8528 7.07679C18.9028 6.77614 18.8187 6.47047 18.6217 6.23804C18.4247 6.00534 18.137 5.87207 17.8324 5.87207C17.4678 5.87207 17.1512 6.11931 17.0627 6.47285C16.9669 6.85626 16.7686 7.20636 16.4891 7.48612L16.4111 7.56413C16.3231 7.49882 16.2152 7.45862 16.0972 7.45862H15.0395C14.7479 7.45862 14.5107 7.69581 14.5107 7.98747V10.6317C14.5107 10.9234 14.7479 11.1606 15.0395 11.1606H16.0972C16.3281 11.1606 16.5224 11.0112 16.5946 10.8047C17.0637 11.0374 17.5791 11.1606 18.1082 11.1606H19.2703C19.8537 11.1606 20.328 10.6862 20.328 10.1029V8.51632C20.328 7.933 19.8537 7.45862 19.2703 7.45862L19.2703 7.45862Z" fill="white"/>
</svg>
