<svg width="24" height="24" viewBox="0 0 24 24" fill="none" xmlns="http://www.w3.org/2000/svg">
<path fill-rule="evenodd" clip-rule="evenodd" d="M21.999 19.6365C21.7782 19.6365 21.599 19.3921 21.599 19.091V1.63649C21.599 1.33649 21.4198 1.09104 21.199 1.09104H2.80096C2.58018 1.09104 2.401 1.33649 2.401 1.63649V19.091C2.401 19.3921 2.22182 19.6365 2.00105 19.6365C1.78027 19.6365 1.60109 19.3921 1.60109 19.091V1.63649C1.60109 0.73431 2.13943 0.000126493 2.80096 0.000126493H21.199C21.8606 0.000126493 22.3989 0.73431 22.3989 1.63649V19.091C22.3989 19.3921 22.2197 19.6365 21.999 19.6365H21.999Z" fill="#FFED00"/>
<path fill-rule="evenodd" clip-rule="evenodd" d="M22 23.9987H2C0.896802 23.9987 0 22.7758 0 21.2714C0 20.9703 0.179199 20.7259 0.399999 20.7259H9.2C9.4208 20.7259 9.6 20.9703 9.6 21.2714C9.6 21.5725 9.4208 21.8168 9.2 21.8168H0.868797C1.0336 22.4518 1.4784 22.9078 2 22.9078H22C22.5216 22.9078 22.9664 22.4518 23.1312 21.8168H14.8C14.5792 21.8168 14.4 21.5725 14.4 21.2714C14.4 20.9703 14.5792 20.7259 14.8 20.7259H23.6C23.8208 20.7259 24 20.9703 24 21.2714C24 22.7758 23.1032 23.9987 22 23.9987Z" fill="#FFED00"/>
<path fill-rule="evenodd" clip-rule="evenodd" d="M8.39866 15.5972C8.3051 15.5972 8.21153 15.5525 8.13556 15.462L4.93674 11.6446C4.84957 11.541 4.79999 11.3927 4.79999 11.2345C4.79999 11.0764 4.84957 10.928 4.93674 10.8244L8.13556 7.00708C8.30109 6.80748 8.553 6.82929 8.70015 7.05834C8.8457 7.2852 8.8289 7.62876 8.66256 7.82726L5.80682 11.2345L8.66176 14.6418C8.8281 14.8403 8.8449 15.1838 8.69935 15.4107C8.62018 15.5339 8.50982 15.5972 8.39866 15.5972L8.39866 15.5972Z" fill="white"/>
<path fill-rule="evenodd" clip-rule="evenodd" d="M10.7994 16.691C10.7577 16.691 10.7153 16.6823 10.6729 16.6637C10.4632 16.5677 10.3503 16.2588 10.42 15.9729L12.8212 6.15165C12.8909 5.86573 13.1158 5.70969 13.3271 5.80681C13.5368 5.90284 13.6497 6.21167 13.58 6.49757L11.1788 16.3189C11.1227 16.5458 10.9667 16.691 10.7994 16.691Z" fill="white"/>
<path fill-rule="evenodd" clip-rule="evenodd" d="M15.5991 15.5971C15.4879 15.5971 15.3775 15.5339 15.2982 15.4106C15.1526 15.1838 15.1694 14.8402 15.3359 14.6417L18.1925 11.2347L15.3359 7.82758C15.1694 7.62909 15.1526 7.28554 15.2982 7.05869C15.4439 6.82966 15.6967 6.80894 15.8632 7.00743L19.064 10.8246C19.1504 10.9282 19.2 11.0765 19.2 11.2347C19.2 11.3928 19.1504 11.5411 19.0632 11.6447L15.8624 15.4619C15.7864 15.5524 15.6927 15.5971 15.5991 15.5971H15.5991Z" fill="white"/>
</svg>
