<svg width="24" height="24" viewBox="0 0 24 24" fill="none" xmlns="http://www.w3.org/2000/svg">
<path fill-rule="evenodd" clip-rule="evenodd" d="M19.5336 22.9665H1.03906V4.5517H10.2863V3.51716H4.19669e-05V24.001H20.5726V12.5176H19.5336L19.5336 22.9665Z" fill="#FFED00"/>
<path fill-rule="evenodd" clip-rule="evenodd" d="M18.1126 3.55186L20.4329 5.8622L9.8355 16.3794L7.54979 14.0691L18.1126 3.55186ZM22.5108 3.75876L21.1602 5.13807L18.8745 2.82773L20.2597 1.4829L22.5108 3.75876ZM6.89177 14.8622L9.00432 17.0001L6.44155 17.4139L6.89177 14.8622ZM5.95671 14.1381L5.22943 18.6553L9.76623 17.9312L10.2164 17.4484L24 3.75874L20.1905 0.00012207L6.44155 13.6898L5.95671 14.1381Z" fill="white"/>
</svg>
