<svg width="24" height="24" viewBox="0 0 24 24" fill="none" xmlns="http://www.w3.org/2000/svg">
<path fill-rule="evenodd" clip-rule="evenodd" d="M19.6 23.1268V6.96551H22.8V23.1268H19.6ZM13.6 23.1268V10.4598H16.8V23.1268H13.6ZM7.6 23.1267V13.954H10.8V23.1267H7.6ZM1.6 23.1268V17.8853H4.80001V23.1268H1.6ZM23.6 23.1266V6.09167H18.8V23.1266H17.6V9.58601H12.8V23.1266H11.6V13.0803H6.8V23.1266H5.6V17.0115H0.799998V23.1266H0.399999C0.179199 23.1266 0 23.3218 0 23.5634C0 23.8049 0.179199 24.0001 0.399999 24.0001H0.799998H5.6H6.8H11.6H12.8H17.6H18.8H23.6C23.8208 24.0001 24 23.8049 24 23.5634C24 23.3218 23.8208 23.1266 23.6 23.1266Z" fill="#FFED00"/>
<path fill-rule="evenodd" clip-rule="evenodd" d="M3.20399 11.0215C3.27139 11.0215 3.34039 11.0028 3.40302 10.9632L17.869 1.85201L16.9636 4.02321C16.8723 4.24207 16.9608 4.50009 17.1614 4.59929C17.2149 4.62627 17.2711 4.63845 17.3265 4.63845C17.4781 4.63845 17.6229 4.5436 17.6899 4.38348L19.1106 0.976567C19.115 0.96569 19.1142 0.95394 19.1178 0.942629C19.1254 0.919567 19.1314 0.897376 19.1353 0.873013C19.1373 0.860831 19.1437 0.850822 19.1445 0.838205C19.1449 0.832982 19.1429 0.828634 19.1433 0.823412C19.1441 0.806878 19.1425 0.79165 19.1417 0.775113C19.1405 0.751181 19.1369 0.728555 19.1322 0.704626C19.129 0.688093 19.1282 0.671124 19.123 0.655025C19.1182 0.639362 19.1098 0.626306 19.1034 0.611078C19.0983 0.601073 19.0983 0.589322 19.0927 0.578881C19.0871 0.56844 19.0775 0.562348 19.0711 0.552338C19.0628 0.538851 19.0564 0.52449 19.0464 0.512308C19.036 0.499256 19.0229 0.490117 19.0109 0.47837C18.9946 0.462272 18.9782 0.447479 18.9599 0.434423C18.9475 0.42572 18.9363 0.416149 18.9228 0.408751C18.9184 0.406575 18.916 0.402223 18.9116 0.400047C18.9016 0.39526 18.8909 0.39613 18.8809 0.392214C18.8589 0.38351 18.8374 0.377421 18.8147 0.373069C18.8043 0.370893 18.7959 0.364365 18.7852 0.363495L15.3702 0.00235463C15.1488 -0.0220124 14.9558 0.154643 14.9346 0.393084C14.9131 0.632396 15.0738 0.845164 15.2928 0.868226L17.4689 1.0984L3.00417 10.2096C2.81312 10.3297 2.74811 10.596 2.85819 10.804C2.93198 10.9436 3.06599 11.0215 3.204 11.0215H3.20399Z" fill="white"/>
</svg>
